<?xml version="1.0" encoding="UTF-8"?>
<svg version="1.1" xmlns="http://www.w3.org/2000/svg" width="202" height="62">
<path d="M0 0 C2.28062532 -0.00437507 4.5593159 -0.04073563 6.83959961 -0.07861328 C8.30118159 -0.08448216 9.76277268 -0.08845108 11.22436523 -0.09033203 C13.20327759 -0.10265869 13.20327759 -0.10265869 15.22216797 -0.11523438 C20.44777583 0.58394936 23.44344116 2.96077515 27.10327148 6.62060547 C31.68898606 13.82672838 31.18906661 22.18197272 31.16577148 30.43310547 C31.18188477 31.5784375 31.19799805 32.72376953 31.21459961 33.90380859 C31.21821554 40.1557487 31.00050625 44.90435562 27.85327148 50.37060547 C20.82119143 57.04206603 14.13927117 56.77326768 4.8918457 56.79614258 C2.62396852 56.80799728 0.35885269 56.85716052 -1.90844727 56.90771484 C-9.62607395 56.99359826 -16.23487651 57.00027904 -22.14672852 51.37060547 C-27.55361766 45.44046898 -26.50972367 37.59802696 -26.60668945 30.05737305 C-26.63323644 28.4831693 -26.67409712 26.9091375 -26.72973633 25.33569336 C-27.24419234 10.59466928 -27.24419234 10.59466928 -22.92797852 5.41357422 C-16.41251905 -0.83457976 -8.44922733 -0.00181762 0 0 Z M-11.14672852 19.37060547 C-10.81672852 20.03060547 -10.48672852 20.69060547 -10.14672852 21.37060547 C-9.81672852 20.71060547 -9.48672852 20.05060547 -9.14672852 19.37060547 C-9.80672852 19.37060547 -10.46672852 19.37060547 -11.14672852 19.37060547 Z M13.85327148 19.37060547 C13.85327148 25.97060547 13.85327148 32.57060547 13.85327148 39.37060547 C14.84327148 39.37060547 15.83327148 39.37060547 16.85327148 39.37060547 C16.85327148 32.77060547 16.85327148 26.17060547 16.85327148 19.37060547 C15.86327148 19.37060547 14.87327148 19.37060547 13.85327148 19.37060547 Z M-2.14672852 21.37060547 C-2.14672852 26.65060547 -2.14672852 31.93060547 -2.14672852 37.37060547 C1.48327148 37.37060547 5.11327148 37.37060547 8.85327148 37.37060547 C8.85327148 36.71060547 8.85327148 36.05060547 8.85327148 35.37060547 C6.21327148 35.04060547 3.57327148 34.71060547 0.85327148 34.37060547 C0.86487305 33.76732422 0.87647461 33.16404297 0.88842773 32.54248047 C0.89745117 31.74326172 0.90647461 30.94404297 0.91577148 30.12060547 C0.92737305 29.33169922 0.93897461 28.54279297 0.95092773 27.72998047 C0.85712455 25.46369545 0.48568211 23.54171597 -0.14672852 21.37060547 C-0.80672852 21.37060547 -1.46672852 21.37060547 -2.14672852 21.37060547 Z M-11.14672852 37.37060547 C-11.14672852 38.36060547 -11.14672852 39.35060547 -11.14672852 40.37060547 C-9.82672852 40.04060547 -8.50672852 39.71060547 -7.14672852 39.37060547 C-8.13672852 39.37060547 -9.12672852 39.37060547 -10.14672852 39.37060547 C-10.47672852 38.71060547 -10.80672852 38.05060547 -11.14672852 37.37060547 Z " fill="#519FF6" transform="translate(28.146728515625,1.62939453125)"/>
<path d="M0 0 C0.33 0.66 0.66 1.32 1 2 C2.65 2 4.3 2 6 2 C6.33 4.31 6.66 6.62 7 9 C6.67 8.01 6.34 7.02 6 6 C5.34 6 4.68 6 4 6 C4 11.28 4 16.56 4 22 C7.63 22 11.26 22 15 22 C15 21.34 15 20.68 15 20 C12.36 19.67 9.72 19.34 7 19 C7.33 18.34 7.66 17.68 8 17 C12.455 17.99 12.455 17.99 17 19 C17.33 17.68 17.66 16.36 18 15 C18.66 15 19.32 15 20 15 C20 11.7 20 8.4 20 5 C20.33 5 20.66 5 21 5 C21 11.27 21 17.54 21 24 C21.33 24 21.66 24 22 24 C22.33 21.69 22.66 19.38 23 17 C23.33 17 23.66 17 24 17 C24.33 19.64 24.66 22.28 25 25 C21.91190305 26.76462683 20.76687864 27 17 27 C17 26.01 17 25.02 17 24 C15.62714844 24.05220703 15.62714844 24.05220703 14.2265625 24.10546875 C13.03804687 24.13253906 11.84953125 24.15960938 10.625 24.1875 C9.44164062 24.22230469 8.25828125 24.25710937 7.0390625 24.29296875 C5.53472656 24.14794922 5.53472656 24.14794922 4 24 C1.73045369 20.59568053 1.63450051 18.83475798 1.375 14.8125 C1.30023437 13.72582031 1.22546875 12.63914062 1.1484375 11.51953125 C1.09945313 10.68808594 1.05046875 9.85664063 1 9 C0.01 9.33 -0.98 9.66 -2 10 C-2 14.62 -2 19.24 -2 24 C-2.66 24 -3.32 24 -4 24 C-4.10822792 20.93654856 -4.18741479 17.8769399 -4.25 14.8125 C-4.28351562 13.94818359 -4.31703125 13.08386719 -4.3515625 12.19335938 C-4.41837569 7.83379843 -4.41222114 5.63670591 -1.984375 1.88671875 C-1.32953125 1.26410156 -0.6746875 0.64148438 0 0 Z " fill="#5597CD" transform="translate(22,17)"/>
<path d="M0 0 C3.62519589 -0.05375085 7.2496019 -0.09355293 10.875 -0.125 C11.90753906 -0.14175781 12.94007812 -0.15851562 14.00390625 -0.17578125 C14.99003906 -0.18222656 15.97617188 -0.18867188 16.9921875 -0.1953125 C18.35899658 -0.21102295 18.35899658 -0.21102295 19.75341797 -0.22705078 C22 0 22 0 24 2 C24.1953125 4.6015625 24.1953125 4.6015625 24.125 7.625 C24.10695313 8.62789062 24.08890625 9.63078125 24.0703125 10.6640625 C24.04710938 11.43492188 24.02390625 12.20578125 24 13 C22.68 13 21.36 13 20 13 C19.67 10.03 19.34 7.06 19 4 C18.34 4 17.68 4 17 4 C16.67 6.97 16.34 9.94 16 13 C14.35 13 12.7 13 11 13 C10.67 9.7 10.34 6.4 10 3 C8.68 3.33 7.36 3.66 6 4 C5.67 6.97 5.34 9.94 5 13 C3.35 13 1.7 13 0 13 C0 8.71 0 4.42 0 0 Z " fill="#050608" transform="translate(93,27)"/>
<path d="M0 0 C11.65087957 -0.27740189 11.65087957 -0.27740189 15 2 C17.14531412 5.71854447 18.17242038 7.90082007 17.5 12.1875 C15.6289374 15.69574238 14.54479826 17.11908664 11 19 C7.2644831 19.32620007 3.76363837 19.18138016 0 19 C0 12.73 0 6.46 0 0 Z M4 4 C4 7.63 4 11.26 4 15 C7.41642759 15.25015873 7.41642759 15.25015873 11 15 C13.30163882 11.54754176 13.34490322 10.05261287 13 6 C11.04366025 3.58878141 11.04366025 3.58878141 7.375 3.875 C5.704375 3.936875 5.704375 3.936875 4 4 Z " fill="#020305" transform="translate(150,21)"/>
<path d="M0 0 C5.61 0.33 11.22 0.66 17 1 C17 2.32 17 3.64 17 5 C15.02 5 13.04 5 11 5 C11 9.95 11 14.9 11 20 C9.35 20 7.7 20 6 20 C6 15.05 6 10.1 6 5 C4.35 5 2.7 5 1 5 C0.67 3.35 0.34 1.7 0 0 Z " fill="#161719" transform="translate(118,20)"/>
<path d="M0 0 C0 4.29 0 8.58 0 13 C-10.47610182 13.36974477 -10.47610182 13.36974477 -12.83203125 11.70703125 C-14.78547961 8.85199133 -14.35745403 6.33623765 -14 3 C-10.71722292 -1.79790496 -5.19568272 -0.18337704 0 0 Z M-8 3 C-8.99 3.495 -8.99 3.495 -10 4 C-9.65555119 6.47266765 -9.65555119 6.47266765 -9 9 C-8.34 9.33 -7.68 9.66 -7 10 C-6.01 9.34 -5.02 8.68 -4 8 C-4.26676204 6.01508358 -4.26676204 6.01508358 -5 4 C-5.99 3.67 -6.98 3.34 -8 3 Z " fill="#020304" transform="translate(91,27)"/>
<path d="M0 0 C2 2 2 2 2.23046875 5.58984375 C2.22647623 7.03912778 2.21171518 8.48841279 2.1875 9.9375 C2.18685547 10.66646484 2.18621094 11.39542969 2.18554688 12.14648438 C2.15912584 15.34930071 2.01906863 17.9427941 1 21 C1.99 20.67 2.98 20.34 4 20 C3.67 19.67 3.34 19.34 3 19 C2.92741054 16.81360547 2.91626217 14.62499611 2.9375 12.4375 C2.94652344 11.23996094 2.95554687 10.04242188 2.96484375 8.80859375 C2.97644531 7.88175781 2.98804688 6.95492188 3 6 C4.32 5.34 5.64 4.68 7 4 C8.924352 5.924352 8.44083951 9.30201485 8.625 11.875 C8.72039063 13.13054688 8.81578125 14.38609375 8.9140625 15.6796875 C9 19 9 19 8 22 C6.25 23.375 6.25 23.375 4 24 C2.35 23.01 0.7 22.02 -1 21 C-0.67 14.07 -0.34 7.14 0 0 Z " fill="#48A3EA" transform="translate(16,21)"/>
<path d="M0 0 C1.0709919 -0.01210762 1.0709919 -0.01210762 2.16362 -0.02445984 C3.67407825 -0.03827755 5.18456743 -0.04901004 6.69506836 -0.05688477 C8.2342244 -0.06840127 9.77334061 -0.08884823 11.31225586 -0.1184082 C13.54177862 -0.16122384 15.77011643 -0.17727197 18 -0.1875 C19.02218376 -0.21376213 19.02218376 -0.21376213 20.0650177 -0.24055481 C25.96591417 -0.21401802 29.36667898 2.06124413 33.57421875 5.98828125 C33.94546875 6.40078125 34.31671875 6.81328125 34.69921875 7.23828125 C34.36921875 7.89828125 34.03921875 8.55828125 33.69921875 9.23828125 C33.02375 8.88894531 32.34828125 8.53960937 31.65234375 8.1796875 C30.7603125 7.72464844 29.86828125 7.26960937 28.94921875 6.80078125 C28.0675 6.34832031 27.18578125 5.89585937 26.27734375 5.4296875 C21.360504 3.15751156 16.94620987 3.08445124 11.57421875 3.11328125 C10.48173828 3.10748047 10.48173828 3.10748047 9.3671875 3.1015625 C5.40403389 3.03053403 5.40403389 3.03053403 1.69921875 4.23828125 C-1.58384073 4.26925351 -4.8549729 4.17072505 -8.13671875 4.078125 C-11.17807978 4.23207044 -12.75954672 4.64218567 -15.30078125 6.23828125 C-10.25578168 0.920579 -7.13018121 0.07660797 0 0 Z " fill="#5495D5" transform="translate(21.30078125,1.76171875)"/>
<path d="M0 0 C1.9375 1.1875 1.9375 1.1875 3 3 C3.1875 5.6875 3.1875 5.6875 3 8 C0.36 8 -2.28 8 -5 8 C-5 8.66 -5 9.32 -5 10 C-3.02 9.67 -1.04 9.34 1 9 C1.33 9.99 1.66 10.98 2 12 C-1.04983996 13.52491998 -3.6423369 13.23562548 -7 13 C-8.9375 11.9375 -8.9375 11.9375 -10 10 C-10.36528977 6.5906288 -10.6140629 4.11976176 -8.9375 1.0625 C-5.88023824 -0.6140629 -3.4093712 -0.36528977 0 0 Z M-5 3 C-5 3.66 -5 4.32 -5 5 C-3.68 5 -2.36 5 -1 5 C-1 4.34 -1 3.68 -1 3 C-2.32 3 -3.64 3 -5 3 Z " fill="#0A0B0D" transform="translate(72,27)"/>
<path d="M0 0 C2.0625 1.5625 2.0625 1.5625 3 4 C2.875 7.625 2.875 7.625 2 11 C-1.69486103 13.46324069 -3.63293092 13.38991688 -8 13 C-9.9375 11.9375 -9.9375 11.9375 -11 10 C-11.36248449 6.61681143 -11.58433618 4.13215135 -10 1.0625 C-6.75482811 -0.66149757 -3.58008387 -0.65498416 0 0 Z M-5 3 C-5.99 3.495 -5.99 3.495 -7 4 C-7 5.65 -7 7.3 -7 9 C-6.01 9.33 -5.02 9.66 -4 10 C-3.01 9.34 -2.02 8.68 -1 8 C-1.26676204 6.01508358 -1.26676204 6.01508358 -2 4 C-2.99 3.67 -3.98 3.34 -5 3 Z " fill="#020304" transform="translate(144,27)"/>
<path d="M0 0 C1.9375 1.1875 1.9375 1.1875 3 3 C3.1875 5.6875 3.1875 5.6875 3 8 C1.68 8.33 0.36 8.66 -1 9 C-0.01 9.33 0.98 9.66 2 10 C2 10.66 2 11.32 2 12 C-1.04983996 13.52491998 -3.6423369 13.23562548 -7 13 C-8.9375 11.9375 -8.9375 11.9375 -10 10 C-10.36528977 6.5906288 -10.6140629 4.11976176 -8.9375 1.0625 C-5.88023824 -0.6140629 -3.4093712 -0.36528977 0 0 Z M-5 3 C-5 3.66 -5 4.32 -5 5 C-3.68 5 -2.36 5 -1 5 C-1 4.34 -1 3.68 -1 3 C-2.32 3 -3.64 3 -5 3 Z " fill="#020304" transform="translate(179,27)"/>
<path d="M0 0 C0 3 0 3 -0.50756836 4.79394531 C-1.15530506 7.69575434 -1.00496768 10.32742793 -0.87890625 13.296875 C-0.83056641 14.50214844 -0.78222656 15.70742188 -0.73242188 16.94921875 C-0.67634766 18.20347656 -0.62027344 19.45773438 -0.5625 20.75 C-0.51029297 22.01972656 -0.45808594 23.28945313 -0.40429688 24.59765625 C-0.27468016 27.73202407 -0.13971529 30.86606874 0 34 C0.66 34.33 1.32 34.66 2 35 C1.67 35.66 1.34 36.32 1 37 C1.33 37.33 1.66 37.66 2 38 C2.45459858 40.65463121 2.70243238 43.32189138 3 46 C-1.01070993 42.1949675 -2.89307755 40.25492974 -3.16113281 34.60180664 C-3.18124028 33.20466442 -3.19482768 31.80741852 -3.203125 30.41015625 C-3.20882507 29.66922226 -3.21452515 28.92828827 -3.22039795 28.16490173 C-3.22983535 26.59896264 -3.23637693 25.0330038 -3.24023438 23.46704102 C-3.24995053 21.07468029 -3.28098858 18.68317519 -3.3125 16.29101562 C-3.31902948 14.76823426 -3.32428017 13.24544676 -3.328125 11.72265625 C-3.3404718 11.00900406 -3.3528186 10.29535187 -3.36553955 9.56007385 C-3.34699508 5.41554122 -2.93427686 3.00932849 0 0 Z " fill="#579AD8" transform="translate(5,8)"/>
<path d="M0 0 C1.65 0 3.3 0 5 0 C5.66 1.98 6.32 3.96 7 6 C7.99 4.02 8.98 2.04 10 0 C11.32 0 12.64 0 14 0 C13.54554036 1.41791408 13.08625056 2.83428046 12.625 4.25 C12.36976563 5.03890625 12.11453125 5.8278125 11.8515625 6.640625 C11.04826333 8.86627958 10.10288338 10.90931672 9 13 C7.68 13 6.36 13 5 13 C3.35 8.71 1.7 4.42 0 0 Z " fill="#010204" transform="translate(183,27)"/>
<path d="M0 0 C0.33 0.66 0.66 1.32 1 2 C2.65 2 4.3 2 6 2 C6 2.66 6 3.32 6 4 C5.01 4.495 5.01 4.495 4 5 C3.68758545 7.71446979 3.48663408 10.33909361 3.375 13.0625 C3.33632813 13.82111328 3.29765625 14.57972656 3.2578125 15.36132812 C3.16326438 17.24047195 3.08053244 19.12020336 3 21 C2.67 21 2.34 21 2 21 C1.67 17.04 1.34 13.08 1 9 C0.01 9.33 -0.98 9.66 -2 10 C-2 14.62 -2 19.24 -2 24 C-2.66 24 -3.32 24 -4 24 C-4.10822792 20.93654856 -4.18741479 17.8769399 -4.25 14.8125 C-4.28351562 13.94818359 -4.31703125 13.08386719 -4.3515625 12.19335938 C-4.41837569 7.83379843 -4.41222114 5.63670591 -1.984375 1.88671875 C-1.32953125 1.26410156 -0.6746875 0.64148438 0 0 Z " fill="#4F9ADD" transform="translate(22,17)"/>
<path d="M0 0 C1.32 0 2.64 0 4 0 C4 4.29 4 8.58 4 13 C0 11 0 11 -1 8 C-1.125 4.375 -1.125 4.375 -1 1 C-0.67 0.67 -0.34 0.34 0 0 Z " fill="#08090A" transform="translate(87,27)"/>
<path d="M0 0 C3.3 0 6.6 0 10 0 C9.67 1.32 9.34 2.64 9 4 C7.02 4 5.04 4 3 4 C3 5.98 3 7.96 3 10 C2.01 9.34 1.02 8.68 0 8 C-0.40843923 5.28796348 -0.13336867 2.7562858 0 0 Z " fill="#0C0C0F" transform="translate(151,21)"/>
<path d="M0 0 C0.33 0.66 0.66 1.32 1 2 C1.66 2.33 2.32 2.66 3 3 C3 3.99 3 4.98 3 6 C3.33 4.35 3.66 2.7 4 1 C4.33 1 4.66 1 5 1 C5 4.96 5 8.92 5 13 C3.35 13 1.7 13 0 13 C0 8.71 0 4.42 0 0 Z " fill="#0D0F10" transform="translate(124,27)"/>
<path d="M0 0 C0 0.66 0 1.32 0 2 C-1.98 2.33 -3.96 2.66 -6 3 C-6 5.31 -6 7.62 -6 10 C-7.32 10 -8.64 10 -10 10 C-10.35915493 3.65492958 -10.35915493 3.65492958 -8.9375 1.0625 C-5.98831309 -0.55479605 -3.29132441 -0.18630138 0 0 Z " fill="#121214" transform="translate(72,27)"/>
<path d="M0 0 C0.99 0.33 1.98 0.66 3 1 C3 2.65 3 4.3 3 6 C3.66 6 4.32 6 5 6 C4.34 9.96 3.68 13.92 3 18 C2.34 17.67 1.68 17.34 1 17 C1.01740234 15.91332031 1.01740234 15.91332031 1.03515625 14.8046875 C1.08231311 9.75216677 1.07377564 4.96621233 0 0 Z " fill="#53A2F0" transform="translate(27,16)"/>
<path d="M0 0 C1.32 0.66 2.64 1.32 4 2 C4 4.97 4 7.94 4 11 C2.68 11 1.36 11 0 11 C-0.19406478 9.35492782 -0.38007935 7.70890406 -0.5625 6.0625 C-0.66691406 5.14597656 -0.77132812 4.22945312 -0.87890625 3.28515625 C-0.91886719 2.53105469 -0.95882812 1.77695312 -1 1 C-0.67 0.67 -0.34 0.34 0 0 Z " fill="#030407" transform="translate(113,29)"/>
<path d="M0 0 C4.74312584 0.61484965 7.06656716 3.14864369 10.375 6.4375 C10.045 7.0975 9.715 7.7575 9.375 8.4375 C7.76959341 7.64835079 6.16571984 6.85608235 4.5625 6.0625 C3.66917969 5.62164063 2.77585937 5.18078125 1.85546875 4.7265625 C-0.625 3.4375 -0.625 3.4375 -3.625 1.4375 C-2.625 0.4375 -2.625 0.4375 0 0 Z " fill="#5C9FE3" transform="translate(45.625,2.5625)"/>
<path d="M0 0 C2.31 0.66 4.62 1.32 7 2 C6.67 2.66 6.34 3.32 6 4 C5.01 4 4.02 4 3 4 C3 7.63 3 11.26 3 15 C2.67 15 2.34 15 2 15 C2 12.03 2 9.06 2 6 C1.01 6 0.02 6 -1 6 C-1.042721 4.33388095 -1.04063832 2.66617115 -1 1 C-0.67 0.67 -0.34 0.34 0 0 Z " fill="#549CE9" transform="translate(39,17)"/>
<path d="M0 0 C0.8125 1.625 0.8125 1.625 1 4 C-2.80816034 9.54903364 -2.80816034 9.54903364 -6.3125 10.875 C-6.869375 10.91625 -7.42625 10.9575 -8 11 C-8 10.34 -8 9.68 -8 9 C-7.34 9 -6.68 9 -6 9 C-6.33 8.01 -6.66 7.02 -7 6 C-5.125 4.9375 -5.125 4.9375 -3 4 C-2.34 4.33 -1.68 4.66 -1 5 C-0.67 3.35 -0.34 1.7 0 0 Z " fill="#609EE0" transform="translate(57,45)"/>
<path d="M0 0 C0.66 0 1.32 0 2 0 C2.24042276 4.08718695 1.42258812 7.17679443 0 11 C-0.66 11 -1.32 11 -2 11 C-2.05399736 9.54207116 -2.09279177 8.08357288 -2.125 6.625 C-2.15980469 5.40683594 -2.15980469 5.40683594 -2.1953125 4.1640625 C-2 2 -2 2 0 0 Z " fill="#54A1F8" transform="translate(22,26)"/>
<path d="M0 0 C0.33 0 0.66 0 1 0 C1 1.65 1 3.3 1 5 C-0.98 5.99 -0.98 5.99 -3 7 C-3 6.34 -3 5.68 -3 5 C-5.64 4.67 -8.28 4.34 -11 4 C-10.67 3.34 -10.34 2.68 -10 2 C-5.545 2.99 -5.545 2.99 -1 4 C-0.67 2.68 -0.34 1.36 0 0 Z " fill="#5A9FE0" transform="translate(40,32)"/>
<path d="M0 0 C3.3 0 6.6 0 10 0 C10 1.32 10 2.64 10 4 C8.35 4 6.7 4 5 4 C5.33 3.34 5.66 2.68 6 2 C3.03 1.505 3.03 1.505 0 1 C0 0.67 0 0.34 0 0 Z " fill="#0D0E10" transform="translate(125,21)"/>
<path d="M0 0 C0.33 0 0.66 0 1 0 C1.12375 1.134375 1.2475 2.26875 1.375 3.4375 C1.58125 4.613125 1.7875 5.78875 2 7 C2.66 7.33 3.32 7.66 4 8 C4.33 7.34 4.66 6.68 5 6 C5 7.32 5 8.64 5 10 C3.35 10 1.7 10 0 10 C0 6.7 0 3.4 0 0 Z " fill="#040507" transform="translate(124,30)"/>
<path d="M0 0 C2.64 0 5.28 0 8 0 C8 0.99 8 1.98 8 3 C5.36 3 2.72 3 0 3 C0 2.01 0 1.02 0 0 Z " fill="#0B0D0D" transform="translate(171,32)"/>
<path d="M0 0 C0.99 0.33 1.98 0.66 3 1 C3 1.66 3 2.32 3 3 C0.04335481 4.4783226 -2.74229737 4.06032783 -6 4 C-5.67 3.34 -5.34 2.68 -5 2 C-3.67696283 1.6278958 -2.34262065 1.29369827 -1 1 C-0.67 0.67 -0.34 0.34 0 0 Z " fill="#040507" transform="translate(71,36)"/>
<path d="M0 0 C1.32 0.33 2.64 0.66 4 1 C3.67 3.64 3.34 6.28 3 9 C2.34 9 1.68 9 1 9 C0.67 6.03 0.34 3.06 0 0 Z " fill="#121315" transform="translate(105,29)"/>
<path d="M0 0 C0.66 0.33 1.32 0.66 2 1 C1.67 3.64 1.34 6.28 1 9 C0.34 8.67 -0.32 8.34 -1 8 C-1.04241723 5.66705225 -1.04092937 3.33297433 -1 1 C-0.67 0.67 -0.34 0.34 0 0 Z " fill="#3EBCEC" transform="translate(29,25)"/>
<path d="M0 0 C2.97 0.495 2.97 0.495 6 1 C5.01 1.495 5.01 1.495 4 2 C4 2.99 4 3.98 4 5 C3.01 5 2.02 5 1 5 C0.67 3.35 0.34 1.7 0 0 Z " fill="#0C0C0E" transform="translate(118,20)"/>
<path d="" fill="#000000" transform="translate(0,0)"/>
</svg>
