<?xml version="1.0" encoding="UTF-8"?>
<svg version="1.1" xmlns="http://www.w3.org/2000/svg" width="62" height="61">
<path d="M0 0 C0.75980164 -0.00807175 1.51960327 -0.01614349 2.3024292 -0.02445984 C3.91302205 -0.03830013 5.52364422 -0.04902254 7.13427734 -0.05688477 C9.5861861 -0.07405635 12.0367316 -0.11793509 14.48828125 -0.16210938 C16.0546776 -0.17224031 17.62108541 -0.18075516 19.1875 -0.1875 C19.91584045 -0.20500809 20.64418091 -0.22251617 21.39459229 -0.24055481 C26.53376583 -0.21888485 29.40211459 1.0087886 33.359375 4.23828125 C37.58046058 9.83325336 36.9944898 16.82824413 37.171875 23.55078125 C37.24825195 25.3287207 37.24825195 25.3287207 37.32617188 27.14257812 C37.85927894 43.43396875 37.85927894 43.43396875 32.984375 49.67578125 C28.45195281 54.10028862 24.94907577 54.55460282 18.7421875 54.57421875 C17.64002396 54.58420395 17.64002396 54.58420395 16.51559448 54.59439087 C14.96403498 54.60449573 13.41243221 54.60920856 11.86083984 54.60888672 C9.49893791 54.61325432 7.13891463 54.64957696 4.77734375 54.6875 C3.26563135 54.69336999 1.75391013 54.69733816 0.2421875 54.69921875 C-0.80810135 54.7207753 -0.80810135 54.7207753 -1.87960815 54.74276733 C-6.95365694 54.69598179 -9.79589072 53.50974366 -13.640625 50.23828125 C-17.35889545 45.82623975 -18.2758393 42.16882823 -18.3125 36.53125 C-18.3258136 35.80641922 -18.3391272 35.08158844 -18.35284424 34.33479309 C-18.37299971 32.80785187 -18.38248129 31.28073621 -18.38183594 29.75366211 C-18.39057064 27.4401796 -18.46319846 25.13439472 -18.5390625 22.82226562 C-18.64414937 15.7993709 -18.58736407 10.29242379 -13.71875 4.7265625 C-9.17202792 0.46002626 -6.0984837 0.06117165 0 0 Z M-3.640625 18.23828125 C-3.640625 25.16828125 -3.640625 32.09828125 -3.640625 39.23828125 C-1.990625 39.23828125 -0.340625 39.23828125 1.359375 39.23828125 C0.039375 38.90828125 -1.280625 38.57828125 -2.640625 38.23828125 C-2.640625 31.96828125 -2.640625 25.69828125 -2.640625 19.23828125 C-1.320625 18.90828125 -0.000625 18.57828125 1.359375 18.23828125 C-0.290625 18.23828125 -1.940625 18.23828125 -3.640625 18.23828125 Z M19.359375 18.23828125 C20.349375 19.72328125 20.349375 19.72328125 21.359375 21.23828125 C21.67822266 23.1394043 21.67822266 23.1394043 21.7734375 25.25 C21.81210937 26.00732422 21.85078125 26.76464844 21.890625 27.54492188 C21.93703125 28.72344727 21.93703125 28.72344727 21.984375 29.92578125 C22.02304687 30.72306641 22.06171875 31.52035156 22.1015625 32.34179688 C22.19569994 34.306916 22.27862132 36.27256665 22.359375 38.23828125 C21.369375 38.56828125 20.379375 38.89828125 19.359375 39.23828125 C21.009375 39.23828125 22.659375 39.23828125 24.359375 39.23828125 C24.359375 32.30828125 24.359375 25.37828125 24.359375 18.23828125 C22.709375 18.23828125 21.059375 18.23828125 19.359375 18.23828125 Z M4.359375 19.23828125 C4.689375 24.84828125 5.019375 30.45828125 5.359375 36.23828125 C8.989375 36.23828125 12.619375 36.23828125 16.359375 36.23828125 C16.359375 35.57828125 16.359375 34.91828125 16.359375 34.23828125 C13.389375 34.23828125 10.419375 34.23828125 7.359375 34.23828125 C7.689375 33.57828125 8.019375 32.91828125 8.359375 32.23828125 C8.43003117 30.1977312 8.44359476 28.15493868 8.421875 26.11328125 C8.41285156 25.01757812 8.40382813 23.921875 8.39453125 22.79296875 C8.38292969 21.94992188 8.37132812 21.106875 8.359375 20.23828125 C7.039375 19.90828125 5.719375 19.57828125 4.359375 19.23828125 Z " fill="#4FA0F6" transform="translate(21.640625,2.76171875)"/>
<path d="M0 0 C2.31 0 4.62 0 7 0 C7.0289337 3.79165074 7.04677601 7.58327327 7.0625 11.375 C7.07087891 12.45523438 7.07925781 13.53546875 7.08789062 14.6484375 C7.09272461 16.1953125 7.09272461 16.1953125 7.09765625 17.7734375 C7.10551147 19.20308838 7.10551147 19.20308838 7.11352539 20.66162109 C7 23 7 23 6 25 C4.02 25 2.04 25 0 25 C-0.33 23.68 -0.66 22.36 -1 21 C-1.60328125 21.01160156 -2.2065625 21.02320312 -2.828125 21.03515625 C-4.02695312 21.04869141 -4.02695312 21.04869141 -5.25 21.0625 C-6.43335938 21.07990234 -6.43335938 21.07990234 -7.640625 21.09765625 C-9.90691002 21.00385306 -11.8288895 20.63241063 -14 20 C-13.67 19.34 -13.34 18.68 -13 18 C-9.37 18 -5.74 18 -2 18 C-1.67 16.68 -1.34 15.36 -1 14 C-0.67 14.99 -0.34 15.98 0 17 C0.66 17 1.32 17 2 17 C2 15.35 2 13.7 2 12 C1.34 12 0.68 12 0 12 C0 11.34 0 10.68 0 10 C0.66 10 1.32 10 2 10 C1.34 6.7 0.68 3.4 0 0 Z M1 1 C1.99 2.485 1.99 2.485 3 4 C3.31884766 5.90112305 3.31884766 5.90112305 3.4140625 8.01171875 C3.45273437 8.76904297 3.49140625 9.52636719 3.53125 10.30664062 C3.57765625 11.48516602 3.57765625 11.48516602 3.625 12.6875 C3.66367187 13.48478516 3.70234375 14.28207031 3.7421875 15.10351562 C3.83632494 17.06863475 3.91924632 19.0342854 4 21 C3.01 21.33 2.02 21.66 1 22 C2.65 22 4.3 22 6 22 C6 15.07 6 8.14 6 1 C4.35 1 2.7 1 1 1 Z " fill="#66B7E9" transform="translate(40,20)"/>
<path d="M0 0 C2.31 0 4.62 0 7 0 C8.65497356 3.30994713 8.10084335 6.99123 8.0625 10.625 C8.05798828 11.42679688 8.05347656 12.22859375 8.04882812 13.0546875 C8.03703168 15.03649006 8.01909605 17.01825433 8 19 C6.35 19.33 4.7 19.66 3 20 C4.32 20 5.64 20 7 20 C7 20.99 7 21.98 7 23 C4.69 23 2.38 23 0 23 C0 15.41 0 7.82 0 0 Z M1 1 C1 7.93 1 14.86 1 22 C2.65 22 4.3 22 6 22 C4.68 21.67 3.36 21.34 2 21 C2 14.73 2 8.46 2 2 C3.32 1.67 4.64 1.34 6 1 C4.35 1 2.7 1 1 1 Z " fill="#80C7FB" transform="translate(17,20)"/>
<path d="M0 0 C1.98 0 3.96 0 6 0 C7 1 7 1 7.09765625 3.94140625 C7.08605469 5.13636719 7.07445312 6.33132812 7.0625 7.5625 C7.05347656 8.76003906 7.04445313 9.95757812 7.03515625 11.19140625 C7.02355469 12.11824219 7.01195312 13.04507813 7 14 C9.31 14 11.62 14 14 14 C14 14.99 14 15.98 14 17 C11.03 16.67 8.06 16.34 5 16 C5 11.38 5 6.76 5 2 C4.01 1.67 3.02 1.34 2 1 C2.16242187 1.53367187 2.32484375 2.06734375 2.4921875 2.6171875 C3.10656784 5.50004907 3.13223949 8.17852708 3.125 11.125 C3.12757812 12.17945313 3.13015625 13.23390625 3.1328125 14.3203125 C3 17 3 17 2 19 C3.32 19.33 4.64 19.66 6 20 C4.02 20.33 2.04 20.66 0 21 C0 20.34 0 19.68 0 19 C-1.32 19 -2.64 19 -4 19 C-4 13.39 -4 7.78 -4 2 C-3.67 2 -3.34 2 -3 2 C-3 7.28 -3 12.56 -3 18 C-1.68 18 -0.36 18 1 18 C0.67 12.06 0.34 6.12 0 0 Z " fill="#56A1E0" transform="translate(24,21)"/>
</svg>
