<?xml version="1.0" encoding="UTF-8"?>
<svg id="Layer_1" xmlns="http://www.w3.org/2000/svg" version="1.1" viewBox="0 0 545.25 169.5">
  <!-- Generator: Adobe Illustrator 29.5.1, SVG Export Plug-In . SVG Version: 2.1.0 Build 141)  -->
  <defs>
    <style>
      .st0 {
        fill: #231f20;
      }

      .st1 {
        fill: #f7f9fb;
      }

      .st2 {
        fill: #679ad2;
      }
    </style>
  </defs>
  <g>
    <path class="st0" d="M177.47,92.26c1.16,3.73,4.49,6.18,8.65,6.18,2.93,0,5.24-1.02,7.01-3.12l9.87,2.24c-3.2,5.91-9.4,9.57-16.95,9.57-5.51,0-10.14-1.76-13.82-5.29s-5.51-7.94-5.51-13.24,1.77-9.64,5.38-13.17c3.61-3.6,8.03-5.36,13.41-5.36s9.74,1.76,13.34,5.36c3.61,3.53,5.38,7.94,5.38,13.17,0,1.29-.14,2.51-.41,3.67h-26.35,0ZM193.82,84.72c-1.29-3.6-4.49-5.97-8.31-5.97-3.61,0-6.81,2.38-7.97,5.97h16.28Z"/>
    <path class="st0" d="M212.07,75.36c3.2-3.53,7.22-5.29,11.98-5.29,3.61,0,6.88,1.09,9.8,3.26v-2.38h10.14v35.29h-10.14v-2.44c-2.86,2.24-6.13,3.33-9.8,3.33-4.77,0-8.78-1.76-11.98-5.29-3.2-3.6-4.77-8.01-4.77-13.24s1.57-9.71,4.77-13.24h0ZM217.92,88.52c0,4.89,3.47,8.55,7.9,8.55s7.9-3.66,7.9-8.55c0-2.38-.75-4.34-2.32-5.97s-3.4-2.44-5.58-2.44c-4.43,0-7.9,3.73-7.9,8.42h0Z"/>
    <path class="st0" d="M259.93,74.61c2.38-3.05,5.99-4.55,10.83-4.55v10.86c-.95-.61-2.18-.95-3.68-.95-4.08,0-7.15,3.12-7.15,7.26v19h-10.21v-35.29h10.21v3.67Z"/>
    <path class="st0" d="M274.37,70.95h10.21v3.6c2.38-2.99,5.58-4.48,9.67-4.48,3.81,0,7.01,1.29,9.6,3.87,2.66,2.58,3.95,5.77,3.95,9.64v22.67h-10.21v-19.95c0-3.87-2.72-6.79-6.47-6.79s-6.54,2.92-6.54,6.79v19.95h-10.21v-35.29h0Z"/>
    <path class="st0" d="M307.8,68.64v-9.91h40.17v9.91h-14.71v37.6h-10.76v-37.6h-14.71.01Z"/>
    <path class="st0" d="M345.05,88.59c0-5.23,1.77-9.64,5.38-13.17,3.61-3.6,8.17-5.36,13.55-5.36s9.87,1.76,13.48,5.36c3.61,3.53,5.45,7.94,5.45,13.17s-1.84,9.64-5.45,13.24c-3.61,3.53-8.1,5.29-13.48,5.29s-9.94-1.76-13.55-5.29c-3.61-3.6-5.38-8.01-5.38-13.24ZM369.83,94.63c1.63-1.7,2.45-3.66,2.45-6.04s-.82-4.34-2.45-5.97c-1.57-1.7-3.54-2.51-5.86-2.51s-4.36.81-5.92,2.44c-1.57,1.63-2.38,3.66-2.38,6.04s.82,4.41,2.38,6.04c1.57,1.63,3.54,2.44,5.92,2.44s4.29-.81,5.86-2.44Z"/>
    <path class="st0" d="M387.81,106.24v-47.51h19.61c7.08,0,13,2.31,17.77,6.85,4.83,4.55,7.22,10.18,7.22,16.9s-2.38,12.35-7.22,16.9c-4.77,4.55-10.69,6.85-17.77,6.85h-19.61ZM398.64,68.64v27.69h8.78c3.88,0,7.15-1.36,9.8-4,2.66-2.65,3.95-5.97,3.95-9.84s-1.36-7.19-4.02-9.84-5.86-4-9.74-4h-8.78,0Z"/>
    <path class="st0" d="M447.18,92.26c1.16,3.73,4.49,6.18,8.65,6.18,2.93,0,5.24-1.02,7.01-3.12l9.87,2.24c-3.2,5.91-9.4,9.57-16.95,9.57-5.51,0-10.14-1.76-13.82-5.29s-5.51-7.94-5.51-13.24,1.77-9.64,5.38-13.17c3.61-3.6,8.03-5.36,13.41-5.36s9.74,1.76,13.34,5.36c3.61,3.53,5.38,7.94,5.38,13.17,0,1.29-.14,2.51-.41,3.67h-26.35,0ZM463.53,84.72c-1.29-3.6-4.49-5.97-8.31-5.97-3.61,0-6.81,2.38-7.97,5.97h16.28Z"/>
    <path class="st0" d="M473.81,70.95h10.55l8.51,22.6,8.51-22.6h10.55l-14.16,35.29h-9.8l-14.16-35.29Z"/>
  </g>
  <g>
    <rect class="st2" x="24.31" y="13.06" width="136.08" height="136.08" rx="29.2" ry="29.2"/>
    <g>
      <path class="st1" d="M89.93,58.73v37.6h22.55v9.91h-33.16v-47.51h10.61Z"/>
      <g>
        <path class="st1" d="M73.47,106.16v7.24h-17.24v-56.01h17.24v7.24h-9.56v41.53s9.56,0,9.56,0Z"/>
        <path class="st1" d="M113.66,64.63v-7.24h17.24v56.01h-17.24v-7.24h9.56v-41.53h-9.56Z"/>
      </g>
    </g>
  </g>
</svg>